<?xml version="1.0" standalone="no"?>
<!DOCTYPE svg PUBLIC "-//W3C//DTD SVG 1.0//EN" "http://www.w3.org/TR/2001/REC-SVG-20010904/DTD/svg10.dtd">
<svg xmlns="http://www.w3.org/2000/svg" xmlns:xlink="http://www.w3.org/1999/xlink" id="body_-729761909_8295" width="769.0443115234375" height="769.0443115234375">

<g transform="matrix(95.500793482021095 0 0 -95.500793482021095 -2369.9120740817939 3860.7103495076244)" >
    <g>
            <path d="M29.465703605235163 38.894373984768997L28.218303605562383 38.894373984768997L28.218303605562383 37.0232740068003L26.34720360523103 37.0232740068003L26.34720360523103 35.77587398477214L28.218303605562383 35.775873984775778L28.218303605569659 33.904774006814357L29.45549314116694 33.904774006807081L29.465703605227887 33.914984414060989L29.465703605235163 35.775873984775778L31.326593141512845 35.775873984775778L31.336803605573792 35.786084502173132L31.336803605573792 37.0232740068003L29.465703605213335 37.0232740068003L29.465703605235163 38.894373984768997" stroke="#FF0000" stroke-width="0" stroke-opacity="1" fill="#FF0000" fill-rule="evenodd" fill-opacity="1" />
            <path d="M28.218303605562383 38.894373984768997L29.465703605227887 38.894373984768997" stroke="#FF0000" stroke-width="0.0074083153158426285" stroke-linejoin="round" stroke-dasharray="1.2474000453948975,0.2494799941778183,0.2494799941778183,0.2494799941778183,0.2494799941778183,0.2494799941778183" fill="none" />
            <path d="M31.326593141512845 35.775873984775778L31.336803605573792 35.78608450217677" stroke="#FF0000" stroke-width="0.0074083153158426285" stroke-linejoin="round" stroke-dasharray="0.014439814724028111,0.0028879628516733646,0.0028879628516733646,0.0028879628516733646,0.0028879628516733646,0.0028879628516733646" fill="none" />
            <path d="M31.336803605573792 37.0232740068003L31.336803605573792 35.775873984775778" stroke="#FF0000" stroke-width="0.0074083153158426285" stroke-linejoin="round" stroke-dasharray="1.2474000453948975,0.2494799941778183,0.2494799941778183,0.2494799941778183,0.2494799941778183,0.2494799941778183" fill="none" />
            <path d="M28.218303605562383 35.775873984775778L28.218303605562383 33.904774006807081" stroke="#FF0000" stroke-width="0.0074083153158426285" stroke-linejoin="round" stroke-dasharray="1.8711000680923462,0.37421998381614685,0.37421998381614685,0.37421998381614685,0.37421998381614685,0.37421998381614685" fill="none" />
            <path d="M29.465703605227887 35.775873984775778L29.465703605227887 33.904774006807081" stroke="#FF0000" stroke-width="0.0074083153158426285" stroke-linejoin="round" stroke-dasharray="1.8711000680923462,0.37421998381614685,0.37421998381614685,0.37421998381614685,0.37421998381614685,0.37421998381614685" fill="none" />
            <path d="M26.34720360523103 37.0232740068003L26.34720360523103 35.775873984775778" stroke="#FF0000" stroke-width="0.0074083153158426285" stroke-linejoin="round" stroke-dasharray="1.2474000453948975,0.2494799941778183,0.2494799941778183,0.2494799941778183,0.2494799941778183,0.2494799941778183" fill="none" />
            <path d="M26.34720360523103 35.775873984775778L28.218303605562383 35.775873984775778" stroke="#FF0000" stroke-width="0.0074083153158426285" stroke-linejoin="round" stroke-dasharray="1.8711000680923462,0.37421998381614685,0.37421998381614685,0.37421998381614685,0.37421998381614685,0.37421998381614685" fill="none" />
            <path d="M26.34720360523103 37.0232740068003L28.218303605562383 37.0232740068003" stroke="#FF0000" stroke-width="0.0074083153158426285" stroke-linejoin="round" stroke-dasharray="1.8711000680923462,0.37421998381614685,0.37421998381614685,0.37421998381614685,0.37421998381614685,0.37421998381614685" fill="none" />
            <path d="M29.465703605227887 37.0232740068003L31.336803605573792 37.0232740068003" stroke="#FF0000" stroke-width="0.0074083153158426285" stroke-linejoin="round" stroke-dasharray="1.8711000680923462,0.37421998381614685,0.37421998381614685,0.37421998381614685,0.37421998381614685,0.37421998381614685" fill="none" />
            <path d="M29.465703605227887 35.775873984775778L31.336803605573792 35.775873984775778" stroke="#FF0000" stroke-width="0.0074083153158426285" stroke-linejoin="round" stroke-dasharray="1.8711000680923462,0.37421998381614685,0.37421998381614685,0.37421998381614685,0.37421998381614685,0.37421998381614685" fill="none" />
            <path d="M28.218303605562383 38.894373984768997L28.218303605562383 37.0232740068003" stroke="#FF0000" stroke-width="0.0074083153158426285" stroke-linejoin="round" stroke-dasharray="1.8711000680923462,0.37421998381614685,0.37421998381614685,0.37421998381614685,0.37421998381614685,0.37421998381614685" fill="none" />
            <path d="M29.465703605227887 38.894373984768997L29.465703605227887 37.0232740068003" stroke="#FF0000" stroke-width="0.0074083153158426285" stroke-linejoin="round" stroke-dasharray="1.8711000680923462,0.37421998381614685,0.37421998381614685,0.37421998381614685,0.37421998381614685,0.37421998381614685" fill="none" />
            <path d="M32.847442885989281 36.399573940716316L32.837685844058129 36.678979266367485L32.808462163561913 36.957023341141273L32.759914418810936 37.232351619682838L32.692278882617089 37.503622669659187L32.605885287875267 37.76951481767707L32.501154443377587 38.028732914410163L32.378596564883324 38.280013818226386L32.23880865251455 38.522133488140632L32.082472106570336 38.753912109814216L31.910348197573754 38.974220652065803L31.723275443667504 39.181985754452278L31.52216555749807 39.376195330105354L31.307998201006981 39.555903095684577L31.081816932314965 39.720233578167488L30.84472324525747 39.868386167965461L30.597872635478112 39.999638933620979L30.34246756708059 40.113352674923469L30.079752465838524 40.208973068676521L29.811007043475243 40.286034483395149L29.537540814036461 40.344161648235847L29.260686030739876 40.383071083508064L28.981791412586304 40.402573246441413L28.702215796465012 40.402573246441413L28.42332117831144 40.383071083508064L28.146466395014855 40.344161648235847L27.873000165576073 40.286034483395149L27.604254743212792 40.208973068676521L27.341539641970726 40.113352674923469L27.086134573573204 39.999638933620979L26.839283963793847 39.868386167965461L26.602190276736351 39.720233578167488L26.376009008044335 39.555903095684577L26.161841651553246 39.376195330105354L25.960731765383812 39.181985754452278L25.773659011477562 38.974220652065803L25.60153510248098 38.753912109814216L25.445198556536766 38.522133488140632L25.305410644167992 38.280013818226386L25.182852765673729 38.028732914410163L25.078121921176049 37.76951481767707L24.991728326434227 37.503622669659187L24.92409279024038 37.232351619682838L24.875545045489403 36.957023341141273L24.846321364993187 36.678979266367485L24.836564323062035 36.399573940716316L24.846321364993187 36.120168615065147L24.875545045489403 35.842124540291358L24.92409279024038 35.566796261749793L24.991728326434227 35.295525211773445L25.078121921176049 35.029633063755561L25.182852765673729 34.770414967022468L25.305410644167992 34.519134063206245L25.445198556536766 34.277014393291999L25.60153510248098 34.045235771618415L25.773659011477562 33.824927229366828L25.960731765383812 33.617162126980354L26.161841651553246 33.422952551327278L26.376009008044335 33.243244785748054L26.602190276736351 33.078914303265144L26.839283963793847 32.93076171346717L27.086134573573204 32.799508947811653L27.341539641970726 32.685795206509162L27.604254743212792 32.590174812756111L27.873000165576073 32.513113398037483L28.146466395014855 32.454986233196784L28.42332117831144 32.416076797924568L28.702215796465012 32.396574634991218L28.981791412586304 32.396574634991218L29.260686030739876 32.416076797924568L29.537540814036461 32.454986233196784L29.811007043475243 32.513113398037483L30.079752465838524 32.590174812756111L30.34246756708059 32.685795206509162L30.597872635478112 32.799508947811653L30.84472324525747 32.93076171346717L31.081816932314965 33.078914303265144L31.307998201006981 33.243244785748054L31.52216555749807 33.422952551327278L31.723275443667504 33.617162126980354L31.910348197573754 33.824927229366828L32.082472106570336 34.045235771618415L32.23880865251455 34.277014393291999L32.378596564883324 34.519134063206245L32.501154443377587 34.770414967022468L32.605885287875267 35.029633063755561L32.692278882617089 35.295525211773445L32.759914418810936 35.566796261749793L32.808462163561913 35.842124540291358L32.847442885989281 36.399573940716316" stroke="#000000" stroke-width="0.0074083153158426285" stroke-linecap="round" stroke-linejoin="round" fill="none" />
    </g>
</g>
</svg>