<?xml version="1.0" standalone="no"?>
<!DOCTYPE svg PUBLIC "-//W3C//DTD SVG 1.0//EN" "http://www.w3.org/TR/2001/REC-SVG-20010904/DTD/svg10.dtd">
<svg xmlns="http://www.w3.org/2000/svg" xmlns:xlink="http://www.w3.org/1999/xlink" id="body_-1765024824_9773" width="14844.154296875" height="20351.9140625">

<g transform="matrix(95.500796554178592 0 0 -95.500796554178592 -1094.8893757147885 21504.549992531174)" >
    <g>
            <path d="M166.49545589356148 12.623471736504463L166.49545589356148 167.25007859718369" stroke="#FF0000" stroke-width="0.02109972337030043" stroke-linejoin="round" stroke-dasharray="30.925325393676758,6.1850647926330566,6.1850647926330566,6.1850647926330566,6.1850647926330566,6.1850647926330566" fill="none" />
            <path d="M11.86884747265232 12.623471736504463L11.86884747265232 167.25007859718369" stroke="#FF0000" stroke-width="0.02109972337030043" stroke-linejoin="round" stroke-dasharray="30.925325393676758,6.1850647926330566,6.1850647926330566,6.1850647926330566,6.1850647926330566,6.1850647926330566" fill="none" />
            <path d="M11.86884747265232 12.623471736504463L166.49545589356148 12.623471736504463" stroke="#FF0000" stroke-width="0.02109972337030043" stroke-linejoin="round" stroke-dasharray="30.925325393676758,6.1850647926330566,6.1850647926330566,6.1850647926330566,6.1850647926330566,6.1850647926330566" fill="none" />
            <path d="M166.49545255795579 167.25007920184677L164.67441771968072 172.58616702773239L162.48559370355753 177.7822281781917L159.93963847769248 182.81294613077486L157.04895863118662 187.65381556308873L153.82764164585791 192.2812454844927L150.2913820108472 196.6726977712128L146.45740118010767 200.80677644452635L142.34437984412699 204.663335420295L137.97235633751032 208.2235954941722L133.36263428223774 211.47019975564885L128.53766868101474 214.38734288749291L123.52097048197157 216.96080195133044L118.33697420066541 219.17804721573677L113.01093786694233 221.02827909893361L107.56881064693955 222.50247126860225L102.03710431328518 223.59345684151012L96.44277087241413 224.29590375504603L90.813064221863954 224.60640712396287L85.175411812884533 224.52343998344818L79.557279963521594 224.04741486028604L73.98603955652014 223.18064683015976L68.488832314457326 221.9273596747683L63.092443231991709 220.29366125336142L57.823158577371316 218.28750656004263L52.706650446505307 215.91867309530448L47.767849002803246 213.19869929486683L43.03081317773534 210.14084142986343L38.518622921299304 206.75999356433178L34.253262216812949 203.07262598405126L30.255508252822978 199.09669899691653L26.544835987804184 194.85159520465973L23.139328871974868 190.3579840462944L20.055574176321784 185.63776638406998L17.30860142143834 180.71393288979954L14.911783863665761 175.61047476667534L12.87680770951215 170.35225444982896L11.868850848280744 167.2500945946372" stroke="#FF0000" stroke-width="0.02109972337030043" stroke-linejoin="round" stroke-dasharray="31.75,6.3499999046325684,6.3499999046325684,6.3499999046325684,6.3499999046325684,6.3499999046325684" fill="none" />
            <path d="M11.86884747265232 167.25007859718369L166.49545589356148 167.25007859718369" stroke="#FF0000" stroke-width="0.02109972337030043" stroke-linejoin="round" stroke-dasharray="30.925325393676758,6.1850647926330566,6.1850647926330566,6.1850647926330566,6.1850647926330566,6.1850647926330566" fill="none" />
            <path d="M59.333297614149785 59.433956138450171L34.992891166601211 118.32370272956635L34.992891166601211 71.562869765893026L35.132243397147121 67.800907513836023L35.55030525723862 65.117053432497755L36.247072414852759 63.511335613207557L37.61479956686884 62.307055052100658L39.426396412599672 61.584471564696912L41.681857823942806 61.343614879792234L43.911513376390005 61.343614879792234L43.911513376390005 59.433956138450171L21.986567110659237 59.433956138450171L21.986567110659237 61.343614879792234L24.216222663106436 61.343614879792234L26.621359970820507 61.641828740538436L28.510374291873767 62.536433697484945L29.883263858909714 64.027459597354067L30.45099939607595 65.598779040067257L30.791642176355062 68.110572901960325L30.905189320448017 71.562869765893026L30.905189320448017 117.29145476127331L30.801963623704253 120.10146713274435L30.492290229180924 122.33800003709655L29.976166173595018 124.00106655517789L29.421332090682697 124.94442999891328L28.623921403101157 125.77882656064446L27.583931570448541 126.50426787828843L26.187815630892125 127.06340547972042L24.322027986301578 127.39888238216747L21.986567110659237 127.51070964737411L21.986567110659237 129.42036838871618L39.82381153023681 129.42036838871618L62.677780942820576 74.659613670772046L85.160141096663153 129.42036838871618L102.99738551624073 129.42036838871618L102.99738551624073 127.51070964737411L100.81418112113617 127.51070964737411L98.383230411651766 127.21250788404458L96.478740503169846 126.31788926872451L95.100688767990235 124.8268649298123L94.532946030653704 123.25555758451577L94.192311379599076 120.74375006424916L94.078763306451933 117.29145476127331L94.078763306451933 71.562869765893026L94.223271722509125 67.800907513836023L94.656823009630202 65.117053432497755L95.379395712046133 63.511335613207557L96.747117805664445 62.307055052100658L98.55872036248951 61.584471564696912L100.81418112113617 61.343614879792234L102.99738551624073 61.343614879792234L102.99738551624073 59.433956138450171L76.24151888687436 59.433956138450171L76.24151888687436 61.343614879792234L78.471174439321544 61.343614879792234L80.896952063557222 61.641828740538436L82.785971625358187 62.536433697484945L84.138215635124851 64.027459597354067L84.705946531121711 65.598779040067257L85.046594551430715 68.110572901960325L85.160141096663153 71.562869765893026L85.160141096663153 118.32370272956635L60.866185806457224 59.433956138450171L59.333297614149785 59.433956138450171zM148.61242202672298 131.02035273957034L148.61242202672298 106.81413788309928L146.89372920504491 106.81413788309928L146.18920917064662 111.14384951399467L145.19052140679725 114.84273285421739L143.897629556444 117.91080354224914L142.25376416853911 120.47422330229958L140.20218310619106 122.65914385572097L137.74285120854287 124.46557814090974L135.04867410128384 125.8132386428795L132.29258313695829 126.62182906244379L129.47454520155119 126.89136086639832L126.43972700276905 126.52720997734994L123.77653754948665 125.43474375824979L121.4849461386154 123.613973567068L119.73011605345613 121.32869485398825L118.67723277821943 118.8426933928416L118.3262674393152 116.15598199615101L118.54819238018311 114.08575558731189L119.21400181549177 112.14168363617125L120.32366720504915 110.32378097529551L123.12621181562892 107.45643023939462L127.69391903461246 104.01559803419116L134.02675862113088 100.00130129236544L139.28863262623199 96.764062629174077L143.30666918559299 94.071609245680236L146.08083395154856 91.923960940472625L148.06790043357989 89.936889899713663L149.72467070634312 87.726151533194724L151.05110778721206 85.291767744190054L152.01882902244219 82.705419995716227L152.599481182967 80.038771415270503L152.79302618756145 77.291845989919238L152.17624669050235 72.236705940225448L150.32595488614575 67.668999687864243L147.24211288511478 63.588754210829528L143.18794831096378 60.391661662489788L138.42671644544035 58.473390796229062L132.95838200224995 57.833971787596006L131.16742223760423 57.885593367343191L129.4487400988192 58.040420212246012L127.80230353721579 58.298483373327862L126.49908133011648 58.622503683532983L124.50943360606888 59.250444269370888L121.83332981868527 60.182335915462602L119.18302463542224 61.0855618344522L117.2707948892554 61.627481952083194L116.096611886868 61.80812646552409L115.37661078151899 61.722114636715617L114.76501304875165 61.464042643266296L114.26179117183332 61.033940489304335L113.85146459803514 60.334314663432615L113.51857366318481 59.267648273140473L113.26309128896636 57.833971787596006L111.54439846728832 57.833971787596006L111.54439846728832 81.833737050408473L113.26309128896636 81.833737050408473L114.16113904117972 77.231638778068856L115.24500845752669 73.472527280858472L116.51467230295185 70.556427996807344L118.11722899128776 68.202337308679446L120.19979870179533 66.129229938154566L122.76235296553827 64.337133987841966L125.655219007924 62.960812034026155L128.72874746220714 62.135003816048311L131.98290769805428 61.859738863938738L135.58286275208246 62.238238637212291L138.64090840124433 63.373701523613278L141.15701127322765 65.266157159305664L143.02795027176037 67.674744252511061L144.15053171657911 70.358579603732849L144.52472018056977 73.31769131199114L144.38277546487484 75.043847121131407L143.95698514074485 76.781455853054155L143.24731335364689 78.530543551870835L142.23828049446766 80.245229490423014L140.91443424276747 81.879613921063338L139.27573940085031 83.43372140126263L137.3712317761964 84.853069341879859L134.07321077889873 87.046588592699948L129.3816428868659 90.014302199130555L124.51200404253585 93.142593358017791L120.67979363819859 95.817829057449586L117.88498144456003 98.040030152608722L115.79209046286205 100.10453178896651L114.06566499764483 102.30665453994797L112.70567740085455 104.64641714968397L111.72503399549929 107.1352868217196L111.136661506531 109.78471771102488L110.94053342183386 112.59472650554014L111.51858455005184 117.38608186777759L113.25276998112908 121.71291667547442L116.14306304421066 125.57524470682472L119.92624349760834 128.60030800402336L124.33911314449647 130.41534043148837L129.3816428868659 131.02035273957034L132.79321294063664 130.71641596482164L136.33899551964367 129.8045935542109L140.01895791833272 128.28489562359388L141.58280327189834 127.56805993404029L142.80602877769894 127.13795299850827L143.68859934840208 126.99458566322761L144.44471039967962 127.08347694946352L145.10278044297507 127.35013734668328L145.66277353546468 127.7945778386547L146.14017748083245 128.50855254098957L146.55050818123104 129.58380733794334L146.89372920504491 131.02035273957034L148.61242202672298 131.02035273957034z" stroke="#FF0000" stroke-width="0.02109972337030043" stroke-linejoin="round" fill="#FF0000" fill-rule="evenodd" fill-opacity="1" />
    </g>
</g>
</svg>